  0
SECTION
  2
HEADER
  9
$ACADVER
  1
AC1009
  9
$INSBASE
 10
0.0
 20
0.0
 30
0.0
  9
$EXTMIN
 10
0.0
 20
0.0
 30
0.0
  9
$EXTMAX
 10
0.0
 20
0.0
 30
0.0
  0
ENDSEC
  0
SECTION
  2
TABLES
  0
TABLE
  2
VPORT
 70
0
  0
ENDTAB
  0
TABLE
  2
LTYPE
 70
1
  0
LTYPE
  2
CONTINUOUS
 70
0
  3
Solid line
 72
65
 73
0
 40
0.0
  0
ENDTAB
  0
TABLE
  2
LAYER
 70
1
  0
LAYER
  2
0
 70
64
 62
7
  6
continuous
  0
ENDTAB
  0
TABLE
  2
STYLE
 70
1
  0
STYLE
  2
STANDARD
 70
0
 40
0
 41
1.0
 50
0.0
 71
0
 42
1
 3
ARIAL.TTF
 4

  0
ENDTAB
  0
TABLE
  2
VIEW
 70
0
  0
ENDTAB
  0
ENDSEC
  0
SECTION
  2
BLOCKS
  0
BLOCK
  8
Z Axis
  2
POCKET020
 70
0
 10
0.0
 20
0.0
 30
0.0
  3
POCKET020
  0
ARC
  8
Z Axis
 62
0
 10
132.0
 20
111.0
 30
0.0
 40
28.0
 50
0.0
 51
90.0
  0
LINE
  8
Z Axis
 62
0
 10
160.0
 20
111.0
 30
0.0
 11
160.0
 21
85.0
 31
0.0
  0
LINE
  8
Z Axis
 62
0
 10
132.0
 20
139.0
 30
0.0
 11
-132.0
 21
139.0
 31
0.0
  0
ARC
  8
Z Axis
 62
0
 10
90.0
 20
85.0
 30
0.0
 40
70.0
 50
-32.8793361968
 51
0.0
  0
ARC
  8
Z Axis
 62
0
 10
-132.0
 20
111.0
 30
0.0
 40
28.0
 50
90.0
 51
180.0
  0
LINE
  8
Z Axis
 62
0
 10
56.912996849
 20
-95.1291209729
 30
0.0
 11
148.787099459
 21
46.9989876814
 31
0.0
  0
LINE
  8
Z Axis
 62
0
 10
-160.0
 20
111.0
 30
0.0
 11
-160.0
 21
85.0
 31
0.0
  0
ARC
  8
Z Axis
 62
0
 10
25.0
 20
-74.5
 30
0.0
 40
38.0
 50
-90.0
 51
-32.8793361968
  0
ARC
  8
Z Axis
 62
0
 10
-90.0
 20
85.0
 30
0.0
 40
70.0
 50
180.0
 51
-147.120663803
  0
LINE
  8
Z Axis
 62
0
 10
-25.0
 20
-112.5
 30
0.0
 11
25.0
 21
-112.5
 31
0.0
  0
LINE
  8
Z Axis
 62
0
 10
-148.787099459
 20
46.9989876814
 30
0.0
 11
-56.912996849
 21
-95.1291209729
 31
0.0
  0
ARC
  8
Z Axis
 62
0
 10
-25.0
 20
-74.5
 30
0.0
 40
38.0
 50
-147.120663803
 51
-90.0
  0
ARC
  8
Z Axis
 62
0
 10
115.0
 20
85.0
 30
0.0
 40
15.0
 50
-0.0
 51
90.0
  0
LINE
  8
Z Axis
 62
0
 10
115.0
 20
100.0
 30
0.0
 11
15.0
 21
100.0
 31
0.0
  0
LINE
  8
Z Axis
 62
0
 10
130.0
 20
65.0
 30
0.0
 11
130.0
 21
85.0
 31
0.0
  0
LINE
  8
Z Axis
 62
0
 10
15.0
 20
100.0
 30
0.0
 11
15.0
 21
-80.0
 31
0.0
  0
ARC
  8
Z Axis
 62
0
 10
112.0
 20
65.0
 30
0.0
 40
18.0
 50
-35.5719699029
 51
-0.0
  0
ARC
  8
Z Axis
 62
0
 10
15.0
 20
-50.0
 30
0.0
 40
30.0
 50
-90.0
 51
-35.5719699029
  0
LINE
  8
Z Axis
 62
0
 10
39.4015634541
 20
-67.4517535221
 30
0.0
 11
126.640938072
 21
54.5289478867
 31
0.0
  0
CIRCLE
  8
Z Axis
 62
0
 10
120.0
 20
124.0
 30
0.0
 40
11.0
  0
CIRCLE
  8
Z Axis
 62
0
 10
104.0
 20
124.0
 30
0.0
 40
2.5
  0
CIRCLE
  8
Z Axis
 62
0
 10
8.25
 20
122.0
 30
0.0
 40
1.5
  0
CIRCLE
  8
Z Axis
 62
0
 10
-120.0
 20
124.0
 30
0.0
 40
11.0
  0
CIRCLE
  8
Z Axis
 62
0
 10
-104.0
 20
124.0
 30
0.0
 40
2.5
  0
CIRCLE
  8
Z Axis
 62
0
 10
0.0
 20
122.0
 30
0.0
 40
5.2
  0
CIRCLE
  8
Z Axis
 62
0
 10
-8.25
 20
122.0
 30
0.0
 40
1.5
  0
CIRCLE
  8
Z Axis
 62
0
 10
0.0
 20
113.75
 30
0.0
 40
1.5
  0
CIRCLE
  8
Z Axis
 62
0
 10
0.0
 20
130.25
 30
0.0
 40
1.5
  0
LINE
  8
Z Axis
 62
0
 10
-115.0
 20
100.0
 30
0.0
 11
-15.0
 21
100.0
 31
0.0
  0
ARC
  8
Z Axis
 62
0
 10
-115.0
 20
85.0
 30
0.0
 40
15.0
 50
90.0
 51
-180.0
  0
LINE
  8
Z Axis
 62
0
 10
-15.0
 20
100.0
 30
0.0
 11
-15.0
 21
-80.0
 31
0.0
  0
LINE
  8
Z Axis
 62
0
 10
-130.0
 20
65.0
 30
0.0
 11
-130.0
 21
85.0
 31
0.0
  0
ARC
  8
Z Axis
 62
0
 10
-15.0
 20
-50.0
 30
0.0
 40
30.0
 50
-144.428030097
 51
-90.0
  0
ARC
  8
Z Axis
 62
0
 10
-112.0
 20
65.0
 30
0.0
 40
18.0
 50
-180.0
 51
-144.428030097
  0
LINE
  8
Z Axis
 62
0
 10
-39.4015634541
 20
-67.4517535221
 30
0.0
 11
-126.640938072
 21
54.5289478867
 31
0.0
  0
CIRCLE
  8
Z Axis
 62
0
 10
-154.5
 20
104.5
 30
0.0
 40
1.5
  0
CIRCLE
  8
Z Axis
 62
0
 10
-136.0
 20
124.0
 30
0.0
 40
2.5
  0
CIRCLE
  8
Z Axis
 62
0
 10
136.0
 20
124.0
 30
0.0
 40
2.5
  0
CIRCLE
  8
Z Axis
 62
0
 10
154.5
 20
104.5
 30
0.0
 40
1.5
  0
CIRCLE
  8
Z Axis
 62
0
 10
0.0
 20
-104.5
 30
0.0
 40
1.5
  0
ENDBLK
  0
ENDSEC
  0
SECTION
  2
ENTITIES
  0
INSERT
  2
POCKET020
  8
Z Axis
 62
0
 10
0.0
 20
0.0
 30
0.0
  0
ENDSEC
  0
EOF
